<svg width="62" height="50" viewBox="0 0 62 50" fill="none" xmlns="http://www.w3.org/2000/svg">
<path d="M50.1002 5.47095L3.48926 20.5845L11.2002 44.3656L57.8112 29.252L50.1002 5.47095Z" stroke="#EAE8FE" stroke-width="2"/>
<path d="M48.172 9.25005L7.26855 22.5129L13.1289 40.5866L54.0324 27.3237L48.172 9.25005Z" stroke="#EAE8FE" stroke-width="2"/>
<path d="M25.2931 23.886L23.0558 24.6115L22.5679 23.1066L24.8052 22.3811L25.2931 23.886ZM20.9117 25.3067L19.5933 25.7342L20.1374 27.4122L29.2864 24.4456L28.7424 22.7676L27.4372 23.1908L26.9493 21.6859L28.3876 21.2196L27.8435 19.5416L18.4414 22.5902L18.9855 24.2682L20.4238 23.8018L20.9117 25.3067ZM28.7213 30.7366L24.26 32.1832L23.9966 31.3709L28.4579 29.9243L28.7213 30.7366ZM31.1082 26.3422L30.5642 24.6642L19.2577 28.3303L19.8018 30.0083L24.3829 28.5228L24.642 29.3219L21.3393 30.3928L22.6823 34.5345L31.3785 31.7147L30.0356 27.573L26.7995 28.6223L26.5404 27.8233L31.1082 26.3422ZM37.2343 18.822L37.7827 20.5133L39.3808 19.9951L40.089 22.1792L42.2464 21.4796L40.2082 15.1938L38.0508 15.8933L38.8324 18.3038L37.2343 18.822ZM38.7005 20.8927C36.7295 20.9872 35.6563 20.1284 35.1691 19.0795L37.4064 18.3541L36.8623 16.6761L30.1237 18.8611L30.6678 20.5391L32.9184 19.8093C33.148 20.9712 32.7728 22.4468 31.0717 23.646L32.6146 25.0001C33.9277 24.1475 34.5926 22.9753 34.8108 21.7419C35.65 22.5147 36.7974 22.9668 38.2458 22.8946L38.7005 20.8927ZM37.4518 27.9352L37.3136 27.5091L43.5462 25.4882L42.3889 21.9191L34.0122 24.6352L34.5391 26.2599L40.7849 24.2347L40.9188 24.6476L34.6862 26.6685L35.8521 30.2642L44.5218 27.453L43.9906 25.815L37.4518 27.9352Z" fill="#EAE8FE"/>
</svg>
